<svg width="141" height="64" viewBox="0 0 141 64" fill="none" xmlns="http://www.w3.org/2000/svg">
<g clip-path="url(#clip0_1_8207)">
<mask id="mask0_1_8207" style="mask-type:luminance" maskUnits="userSpaceOnUse" x="0" y="2" width="141" height="59">
<path d="M140.78 2.24133H0.779907V60.9383H140.78V2.24133Z" fill="white"/>
</mask>
<g mask="url(#mask0_1_8207)">
<path d="M53.2021 39.6823C50.915 40.3347 48.6271 40.6197 46.2717 40.6796C46.8057 42.7342 47.6795 44.5255 49.5649 45.6429C50.9147 46.4428 52.3896 46.5951 53.9099 46.3879C56.533 46.0305 58.7892 44.8105 60.7531 43.1304C61.8849 42.162 62.8095 40.9294 63.7072 39.7259C63.9199 39.4407 63.7273 38.7713 63.5882 38.3195C62.9458 36.2321 62.6809 34.0834 62.3958 31.9289C61.9856 28.829 62.0453 25.7143 62.182 22.6186C62.3399 19.0462 62.7892 15.4867 64.0194 12.0796C64.9324 9.55086 66.0722 7.13289 67.7326 5.01513C68.5472 3.97622 69.5221 3.0161 70.8204 2.55216C72.916 1.80337 74.5092 2.38728 75.7519 4.5236C76.7132 6.17613 77.1899 8.00671 77.3401 9.89927C77.4914 11.8047 77.646 13.7218 77.5958 15.6285C77.5225 18.3998 77.1569 21.1496 76.3476 23.8193C75.6444 26.1387 74.9955 28.4771 74.2103 30.7686C73.0765 34.0769 71.479 37.1639 69.4398 40.012C69.1868 40.3656 69.1157 40.6671 69.2617 41.103C70.3403 44.3191 71.9487 47.2322 74.0933 49.8615C75.3988 51.4621 76.8592 52.9017 78.577 54.0323C79.9307 54.9232 81.4615 55.4917 83.0455 55.8605C85.2298 56.369 87.4489 56.677 89.6912 56.5293C92.2559 56.3605 94.803 56.0175 97.26 55.2042C98.9157 54.6561 100.569 54.1007 102.218 53.5317C102.674 53.3743 103.071 53.422 103.319 53.8342C103.577 54.2621 103.316 54.6052 103.014 54.9161C100.238 57.778 96.832 59.427 92.981 60.349C90.6247 60.9133 88.251 60.9922 85.8959 60.81C82.6753 60.561 79.6746 59.4743 76.89 57.7833C74.7247 56.4685 72.7961 54.8643 71.1891 52.9468C69.7451 51.2237 68.5174 49.3109 67.2823 47.4243C66.5413 46.2923 65.9689 45.05 65.3407 43.8942C64.4797 44.9193 63.6839 46.0586 62.6991 47.0002C60.4163 49.1829 57.8065 50.8913 54.6584 51.5172C52.2305 51.9998 49.8265 51.6978 47.4948 50.843C45.128 49.9752 43.4319 48.3154 42.1183 46.2416C40.959 44.4115 40.2102 42.4049 39.9375 40.247C39.799 39.1507 39.6519 38.0407 39.6791 36.9411C39.7667 33.4053 41.0288 30.3494 43.7598 28.0369C45.4174 26.6332 47.3406 25.7217 49.5408 25.434C52.077 25.1025 54.4816 25.3659 56.5835 26.931C58.2583 28.178 59.1356 29.9044 59.3177 31.9905C59.5102 34.1942 58.5597 35.942 57.0742 37.4214C56.0091 38.4821 54.6832 39.181 53.2021 39.6823ZM72.2566 10.6875C71.947 11.0466 71.5307 11.3583 71.3472 11.7731C70.6611 13.3236 69.9204 14.8696 69.4459 16.4892C68.8576 18.4966 68.4567 20.5653 68.0817 22.6268C67.7713 24.3332 67.5448 26.0625 67.4139 27.7917C67.3058 29.2181 67.3414 30.6614 67.4082 32.0929C67.4588 33.1807 67.6585 34.2613 67.7919 35.3452C67.8783 35.3589 67.9648 35.3728 68.0513 35.3865C68.7307 33.7358 69.4763 32.1087 70.0766 30.4296C71.5288 26.367 72.6037 22.2067 73.1979 17.923C73.4628 16.0132 73.7342 14.1199 73.4572 12.1867C73.3116 11.1711 73.0406 10.7318 72.2566 10.6875ZM54.0572 30.8159C53.7721 30.3828 53.5741 29.8378 53.1866 29.5362C51.5893 28.293 49.3148 28.6779 48.0015 29.9665C46.0279 31.9032 45.8391 34.4174 45.7106 37.0015C48.6777 37.1864 51.2144 36.4089 53.1642 34.1948C53.9601 33.291 54.4726 32.211 54.0572 30.8159Z" fill="#BEBEBE"/>
<path d="M49.8743 56.1397C50.1418 56.3234 50.5374 56.5235 50.522 56.6844C50.4971 56.9448 50.255 57.2991 50.0131 57.4057C48.4053 58.1139 46.7239 58.3143 44.9758 58.0598C43.0338 57.7769 41.1435 57.316 39.402 56.4032C38.285 55.8177 37.1838 55.1753 36.164 54.4362C34.0798 52.9258 32.6372 50.8501 31.5224 48.5775C30.5683 46.632 29.8972 44.553 29.5868 42.4033C29.3063 40.4598 29.0578 38.4897 29.0652 36.5324C29.0736 34.3258 29.3363 32.1152 29.5762 29.9158C29.8335 27.555 30.1918 25.2051 30.5109 22.851C30.5365 22.6622 30.6009 22.4786 30.6472 22.2927C30.5944 22.2627 30.5416 22.2328 30.489 22.2029C29.7174 23.4077 28.8923 24.582 28.1848 25.8233C26.3692 29.0084 24.9372 32.3727 23.9078 35.8864C23.2207 38.2311 22.7355 40.635 22.1665 43.0139C21.9441 43.9434 21.885 44.9439 21.4941 45.7938C20.8388 47.2187 18.8496 47.8735 17.6614 46.7119C17.1683 46.2298 16.7573 45.5757 16.5307 44.9229C15.1251 40.8718 14.0233 36.7342 13.2817 32.5089C12.8756 30.1955 12.5096 27.8728 12.2121 25.5434C11.9631 23.5932 11.8412 21.627 11.6599 19.6682C11.6009 19.0312 11.5319 18.3954 11.4464 17.5509C11.0369 19.0417 10.6276 20.3451 10.3256 21.6727C9.79659 23.9983 9.2813 26.3296 8.86098 28.6765C8.58178 30.2355 8.47102 31.825 8.29707 33.4023C8.06723 35.4861 7.8405 37.5702 7.631 39.6561C7.55562 40.4066 7.50646 41.162 7.49279 41.9161C7.43636 45.0251 7.39742 48.1347 7.35353 51.244C7.33025 52.8931 6.33378 53.9048 4.77356 54.268C3.84908 54.4833 2.97773 54.4022 2.16499 53.9658C1.12035 53.4048 0.755131 52.3738 0.781199 51.2999C0.835569 49.0599 0.973168 46.8185 1.17389 44.5865C1.37904 42.3051 1.65588 40.0277 1.98468 37.7607C2.27715 35.7443 2.66436 33.7406 3.04442 31.7379C3.61195 28.7473 4.15463 25.7504 4.80834 22.7783C5.70598 18.6971 6.85655 14.6795 8.49179 10.829C9.1464 9.28757 9.93328 7.75908 10.917 6.41254C11.9604 4.98432 13.7308 4.03473 15.809 4.58364C16.8002 4.84542 17.5044 5.94416 17.5958 7.18082C17.6896 8.4483 17.3433 9.62821 17.0319 10.8216C16.6015 12.4706 16.5259 14.1298 16.7616 15.8211C16.9503 17.1764 17.0141 18.5487 17.188 19.9066C17.3947 21.5191 17.6303 23.1294 17.9073 24.7313C18.2654 26.8027 18.6673 28.8666 19.0706 30.9298C19.203 31.6068 19.398 32.2716 19.6033 33.099C20.0374 32.0911 20.3771 31.2297 20.7738 30.3954C21.9868 27.8436 23.1942 25.2885 24.4561 22.7608C25.6908 20.2873 27.3523 18.1189 29.4004 16.2594C30.9957 14.8109 32.7586 13.6307 34.9212 13.2288C35.5286 13.1159 36.1817 13.1352 36.7984 13.2143C37.716 13.3319 38.1969 14.2311 37.8368 15.2024C37.473 16.1838 36.8807 17.0902 36.5947 18.0886C36.1746 19.5562 35.8544 21.0645 35.6426 22.5768C35.3396 24.7394 35.1138 26.9171 34.964 29.0959C34.8037 31.4282 34.6497 33.7724 34.712 36.1056C34.7831 38.7638 35.0477 41.4274 35.9025 43.9765C36.6791 46.2921 37.6986 48.4808 39.2384 50.4182C41.4268 53.1713 44.2744 54.8275 47.634 55.6827C48.3539 55.8659 49.0895 55.9881 49.8743 56.1397Z" fill="#BEBEBE"/>
<path d="M128.064 22.4326C127.927 23.2219 127.819 23.9589 127.71 24.7001C128.84 24.8148 129.965 24.8859 131.075 25.0523C132.482 25.2633 133.877 25.5528 135.278 25.8063C135.852 25.9101 135.724 26.4297 135.83 26.7832C136.264 28.207 136.058 29.552 135.041 30.6519C134.529 31.2059 133.878 31.6852 133.203 32.0261C130.506 33.3879 128.017 35.0861 125.713 36.9951C123.757 38.6145 122.073 40.562 120.276 42.3709C120.177 42.4706 120.139 42.631 120.043 42.8212C122.518 42.1579 124.995 41.9953 127.469 42.1648C129.785 42.3235 132.117 42.5405 134.324 43.3541C136.704 44.2314 138.769 45.5658 140.197 47.7235C140.447 48.1023 140.558 48.5743 140.762 49.0782C139.729 49.2476 139.025 48.7831 138.29 48.4947C136.147 47.6535 133.963 46.9499 131.685 46.601C130.752 46.4579 129.794 46.4705 128.848 46.4124C128.775 47.479 128.733 48.4523 128.631 49.4194C128.579 49.9147 128.453 50.409 128.301 50.8852C128.019 51.7738 127.291 52.1078 126.448 52.2267C126.074 52.2795 125.686 52.2541 125.306 52.2314C124.747 52.1982 124.427 51.7612 124.472 51.2562C124.608 49.7355 124.709 48.2116 124.834 46.5569C123.986 46.6213 123.257 46.6072 122.557 46.7423C119.958 47.2438 117.37 47.7971 114.778 48.3257C113.465 48.5933 112.791 47.5854 112.63 46.4321C112.497 45.4821 112.782 44.5896 113.224 43.7683C114.553 41.3001 116.249 39.1023 118.307 37.2026C121.01 34.7062 123.941 32.5008 127.064 30.5512C127.564 30.2394 128.041 29.8909 128.644 29.4804C127.833 29.3844 127.117 29.245 126.399 29.2265C124.92 29.1886 123.434 29.1389 121.96 29.2358C120.381 29.3396 118.81 29.585 117.241 29.8112C116.486 29.9201 115.749 30.1476 114.996 30.2837C114.095 30.4469 112.791 29.5543 112.641 28.6386C112.558 28.1352 112.555 27.6004 112.625 27.0949C112.727 26.3506 113.249 25.9631 113.97 25.8513C115.749 25.5757 117.524 25.27 119.31 25.0528C120.953 24.8529 122.609 24.7528 124.184 24.6153C124.417 23.4699 124.585 22.3423 124.884 21.2501C125.242 19.9416 126.85 19.3166 128.036 19.9568C128.457 20.1842 128.405 20.569 128.337 20.9536C128.253 21.4287 128.174 21.9046 128.064 22.4326Z" fill="#BEBEBE"/>
<path d="M109.526 38.6385C109.617 40.7501 109.678 42.7963 109.809 44.8381C109.872 45.8232 110.087 46.7975 110.193 47.7809C110.339 49.1369 109.844 49.7865 108.328 50.4658C107.759 50.7209 107.125 50.8394 106.512 50.986C105.964 51.1172 105.585 50.771 105.497 50.0309C105.38 49.0467 105.304 48.0576 105.201 46.9646C104.159 48.2879 102.948 49.2792 101.506 49.9706C98.4817 51.4207 95.4155 51.0569 92.7913 48.9127C90.7712 47.2622 89.8801 45.0397 89.3321 42.6027C88.7686 40.0967 88.8511 37.548 88.9629 35.0216C89.0675 32.6611 89.4331 30.3032 90.4884 28.138C91.181 26.7171 92.0363 25.3989 93.733 25.0264C94.2871 24.9049 94.8859 24.8659 95.4472 24.9322C96.0153 24.9994 95.9364 25.6236 95.8993 25.9513C95.6868 27.8261 95.3346 29.6854 95.1348 31.5613C94.896 33.804 94.6587 36.0562 94.6204 38.3077C94.5946 39.8282 94.7834 41.3648 95.3729 42.8291C95.9892 44.3597 97.0392 45.3823 98.6636 45.4592C100.047 45.5246 101.157 44.7425 101.992 43.6128C103.107 42.1052 103.439 40.3613 103.608 38.5534C103.765 36.8625 103.963 35.1753 104.133 33.4854C104.197 32.8462 104.227 32.2035 104.276 31.5628C104.41 29.842 104.542 28.1211 104.682 26.401C104.734 25.7636 105.364 25.1076 106.085 25.0589C107.009 24.9964 107.948 24.9563 108.83 25.3602C109.202 25.5303 109.401 25.7562 109.403 26.22C109.428 30.3372 109.482 34.4542 109.526 38.6385Z" fill="#BEBEBE"/>
<path d="M84.1976 50.756C83.1127 51.1291 82.0625 51.118 81.0146 50.8806C80.161 50.6871 79.4516 49.8042 79.377 48.8647C79.2718 47.5394 79.1479 46.2132 79.1126 44.8854C79.0372 42.0486 78.9376 39.2089 78.9952 36.3734C79.0342 34.4579 79.3083 32.546 79.5105 30.6359C79.6002 29.7883 79.7372 28.942 79.9144 28.1083C80.2019 26.7553 80.9275 26.305 81.9015 26.1349C83.2068 25.9072 84.6715 26.507 85.0015 27.5229C85.2112 28.1689 85.0676 28.9494 84.9999 29.6619C84.8582 31.151 84.6348 32.6323 84.4973 34.1216C84.4035 35.139 84.303 36.1709 84.3724 37.1849C84.5353 39.5623 84.7701 41.9359 85.0311 44.305C85.2041 45.8756 85.4602 47.4376 85.7039 48.9997C85.8281 49.796 85.3233 50.3998 84.1976 50.756Z" fill="#BEBEBE"/>
<path d="M54.987 15.8767C56.072 16.2103 56.9447 17.0635 56.7642 18.221C56.617 19.1652 55.9418 19.64 55.2182 20.0658C53.143 21.2869 51.0779 22.529 48.9577 23.668C48.2495 24.0485 47.3978 24.2674 46.5928 24.3346C45.6694 24.4117 44.9525 23.2785 45.4243 22.4828C45.9182 21.65 46.5497 20.8596 47.2626 20.205C48.3621 19.1954 49.5284 18.2365 50.7684 17.4088C51.7353 16.7633 52.8442 16.32 53.9189 15.8537C54.2015 15.7312 54.5916 15.8568 54.987 15.8767Z" fill="#BEBEBE"/>
<path d="M85.5365 18.0416C86.1205 18.2398 86.6879 18.3665 87.1613 18.6498C88.1897 19.2651 88.0748 21.2531 87.2286 22.0867C86.3396 22.9624 85.2009 23.3433 83.9973 23.5672C82.7722 23.7951 81.1688 22.8775 80.7283 21.6908C80.3079 20.558 80.702 19.6582 81.9517 18.9839C83.0482 18.3923 84.2479 18.153 85.5365 18.0416Z" fill="#BEBEBE"/>
</g>
</g>
<defs>
<clipPath id="clip0_1_8207">
<rect width="140" height="62.88" fill="white" transform="translate(0.779907 0.149963)"/>
</clipPath>
</defs>
</svg>
