<svg width="141" height="31" viewBox="0 0 141 31" fill="none" xmlns="http://www.w3.org/2000/svg">
<g clip-path="url(#clip0_1_8186)">
<mask id="mask0_1_8186" style="mask-type:luminance" maskUnits="userSpaceOnUse" x="0" y="1" width="141" height="29">
<path d="M140.59 1.92578H0.589966V29.2441H140.59V1.92578Z" fill="white"/>
</mask>
<g mask="url(#mask0_1_8186)">
<path d="M15.157 24.2249C15.157 24.6643 14.8005 25.0195 14.361 25.0195C13.9216 25.0195 13.565 24.663 13.565 24.2249C13.565 19.899 10.043 16.3809 5.71315 16.3809C5.27374 16.3809 4.91719 16.0244 4.91719 15.5862C4.91719 15.1481 5.27374 14.7916 5.71315 14.7916C10.0417 14.7916 13.565 11.2722 13.565 6.94765C13.565 6.50822 13.9216 6.15299 14.361 6.15299C14.8005 6.15299 15.157 6.50953 15.157 6.94765C15.157 11.2735 18.6791 14.7916 23.0076 14.7916H27.9085C27.4953 7.62654 21.5327 1.92578 14.2624 1.92578C6.99199 1.92578 0.589966 8.0528 0.589966 15.5849C0.589966 23.1171 6.7236 29.2441 14.2624 29.2441C21.8011 29.2441 27.4953 23.5433 27.9098 16.3796H23.0089C18.6804 16.3796 15.1584 19.899 15.1584 24.2236L15.157 24.2249Z" fill="#BEBEBE"/>
<path d="M119.224 24.9485H112.115C111.968 24.9485 111.828 24.8722 111.748 24.7498C110.562 22.9421 109.572 21.4962 108.776 20.4095C107.951 19.2833 106.926 17.9808 105.7 16.5033H104.973V22.1909C104.973 22.5079 105.033 22.7763 105.153 22.9961C105.272 23.2158 105.498 23.4013 105.834 23.55C106.001 23.621 106.264 23.6934 106.622 23.767L107.194 23.8868C107.397 23.9289 107.542 24.1065 107.542 24.3131V24.9472H96.9967V24.3328C96.9967 24.0986 97.1731 23.9026 97.4057 23.8749L98.5319 23.8052C98.9519 23.7565 99.2492 23.6973 99.4256 23.6276C99.7607 23.4868 99.9856 23.3092 100.1 23.0934C100.215 22.8777 100.273 22.6027 100.273 22.2685V9.05929C100.273 8.74225 100.224 8.47908 100.127 8.26729C100.029 8.0568 99.7953 7.87127 99.4256 7.7134C99.1427 7.59891 98.8095 7.50291 98.4255 7.42263L97.8674 7.30684C97.6651 7.26476 97.5188 7.08714 97.5188 6.88058V6.22144H108.058C110.414 6.22144 112.203 6.5885 113.427 7.32395C114.649 8.05809 115.261 9.16981 115.261 10.6565C115.261 11.9682 114.883 13.0208 114.129 13.8167C113.374 14.6127 112.224 15.235 110.68 15.6836C111.28 16.4586 111.98 17.3559 112.778 18.3755C113.577 19.3964 114.408 20.4384 115.274 21.5028C115.548 21.8462 115.92 22.2659 116.392 22.7632C116.865 23.2605 117.43 23.5657 117.792 23.6802C117.995 23.7421 118.386 23.7947 118.699 23.8381L118.825 23.8565C119.052 23.8881 119.222 24.0828 119.222 24.3117V24.9472L119.224 24.9485ZM110.072 11.0262C110.072 9.77766 109.72 8.86461 109.019 8.28833C108.318 7.71206 107.318 7.42393 106.021 7.42393H104.975V15.2627H105.981C107.279 15.2627 108.285 14.9245 108.999 14.2469C109.714 13.5694 110.072 12.4958 110.072 11.0275V11.0262Z" fill="#BEBEBE"/>
<path d="M57.0583 19.6463C56.202 21.0055 55.2518 22.0198 54.2085 22.6908C53.1666 23.3618 52.1996 23.8473 50.8667 23.8473C49.9524 23.8473 49.1829 23.6723 48.4302 23.3591C47.6776 23.046 46.9593 22.4908 46.4053 21.8212C45.9646 21.2883 45.662 20.6647 45.4067 20.0279C45.1436 19.3675 44.9844 18.6623 44.5713 18.0702C44.2016 17.54 43.7148 17.0848 43.1504 16.7559C42.8109 16.5572 42.4426 16.4046 42.0597 16.3099C41.7084 16.223 41.3374 16.1954 40.9598 16.1941C40.723 16.1941 40.5007 16.0612 40.4401 15.8494C40.3467 15.5284 40.6059 15.2402 40.9361 15.2402C40.9519 15.2402 40.9664 15.2402 40.9822 15.2402C41.9913 15.2323 42.9754 14.8389 43.749 14.1982C45.2831 12.9286 45.0976 10.8644 46.0764 9.2882C46.8487 8.04488 48.371 7.09368 50.1605 7.09368C51.5983 7.09368 52.8166 7.5844 53.8163 8.56589C54.7675 9.50004 55.5912 10.9407 56.2835 12.8852C56.3454 13.0602 56.5137 13.1813 56.7045 13.1813H57.6452V6.32534H56.4346C56.3296 6.32534 56.2279 6.36086 56.1479 6.42796L55.2661 7.20813C54.9574 7.04632 53.9822 6.30429 52.5165 5.82802C50.813 5.27413 49.1747 5.2215 47.6973 5.44648C45.0423 5.84907 42.2413 7.5844 40.7362 9.90526C39.5678 11.7064 38.9797 13.4904 38.9797 15.9059C38.9797 19.7411 41.2703 22.2737 42.0939 23.0447C42.8886 23.788 44.37 24.8801 45.6673 25.3261C46.9632 25.7721 48.221 25.9694 49.7079 25.9694C50.9472 25.9694 52.0284 25.6418 52.9231 25.3182C56.2792 24.0999 57.824 21.4646 58.2028 20.8528C58.3303 20.6463 58.2685 20.3766 58.058 20.2489L57.0583 19.6463Z" fill="#BEBEBE"/>
<path d="M75.292 20.3213C75.4406 19.7727 75.537 19.4069 75.537 19.4069C75.5528 19.1556 75.3529 18.9438 75.1016 18.9438H74.1792C73.8977 19.6214 72.8146 22.3066 72.3817 22.7671C71.9689 23.2052 71.3835 23.3539 70.8177 23.4789C70.111 23.6341 69.4086 23.7526 68.6822 23.7459C68.0628 23.7407 67.3033 23.7157 66.7774 23.3526C66.5482 23.1947 66.3943 22.9473 66.3152 22.6132C66.2366 22.279 66.1968 21.8211 66.1968 21.2409V8.92772C66.1968 8.61984 66.2548 8.34488 66.3679 8.1028C66.4825 7.86072 66.7112 7.68311 67.055 7.56861C67.3364 7.48047 67.6677 7.41208 68.0508 7.36473L68.665 7.28709C68.8836 7.25943 69.0466 7.07396 69.0466 6.85421V6.22272H58.7662V6.87923C58.7662 7.08709 58.9134 7.26734 59.1186 7.30683L59.6829 7.41735C60.066 7.49231 60.3935 7.59099 60.6658 7.71469C61.0355 7.88176 61.2685 8.06858 61.3658 8.27515C61.4631 8.48171 61.5106 8.74354 61.5106 9.06057V22.2711C61.5106 22.6145 61.4487 22.8961 61.3265 23.1157C61.2028 23.3355 60.9832 23.5078 60.6658 23.6302C60.5344 23.6828 60.2607 23.7381 59.8474 23.7946C59.5961 23.8301 59.3636 23.8591 59.1517 23.8815C58.9307 23.9052 58.7648 24.092 58.7648 24.3143V24.9498H73.7237L75.292 20.3226V20.3213Z" fill="#BEBEBE"/>
<path d="M96.8573 23.8775L96.514 23.8038C96.1889 23.7341 95.9022 23.6302 95.6562 23.492C95.3312 23.3013 95.0799 23.1 94.9035 22.8869C94.7271 22.6737 94.5823 22.4382 94.4682 22.1777C93.7811 20.5818 92.9512 18.5688 91.9736 16.1388C91.287 14.4285 89.2421 9.44082 88.3489 7.26207C88.5254 7.20417 88.6529 7.0463 88.6529 6.85421V6.22272H85.2819C84.0415 9.17243 82.9086 11.8708 81.8835 14.3167C80.8589 16.7638 79.8367 19.2056 78.8155 21.6435C78.6486 22.0606 78.4391 22.4198 78.1893 22.7237C77.9381 23.0276 77.6327 23.2828 77.2721 23.492C77.0607 23.6223 76.7726 23.7249 76.4077 23.7973L75.7753 23.9249C75.571 23.9657 75.4253 24.1446 75.4253 24.3525V24.9498H83.1061V24.3288C83.1061 24.1077 82.9388 23.9209 82.7192 23.896C81.9257 23.8078 81.3456 23.6802 80.9773 23.5118C80.5511 23.317 80.3378 23.0802 80.3378 22.8026C80.3378 22.7158 80.3536 22.5645 80.3838 22.3474C80.414 22.1303 80.5128 21.7791 80.6801 21.2936C80.8115 20.9212 80.9668 20.495 81.1456 20.0187C81.3245 19.5411 81.4889 19.1254 81.6376 18.7688H88.103L89.7014 22.5947C89.7633 22.7421 89.8002 22.8592 89.8132 22.946C89.8266 23.0329 89.8328 23.1105 89.8328 23.1802C89.8328 23.3802 89.5121 23.5473 88.871 23.6815C88.3949 23.7815 87.9634 23.8538 87.5794 23.8986C87.3608 23.9236 87.1992 24.1104 87.1992 24.3301V24.9498H97.2044V24.3038C97.2044 24.0985 97.061 23.9209 96.8602 23.8775H96.8573ZM82.1769 17.4795L84.848 10.8052L87.5583 17.4795H82.1769Z" fill="#BEBEBE"/>
<path d="M140.245 23.8775L139.902 23.8038C139.577 23.7341 139.29 23.6302 139.044 23.492C138.719 23.3013 138.468 23.1 138.291 22.8869C138.115 22.6737 137.97 22.4382 137.856 22.1777C137.169 20.5818 136.339 18.5688 135.362 16.1388C134.675 14.4285 132.63 9.44082 131.737 7.26207C131.913 7.20417 132.041 7.0463 132.041 6.85421V6.22272H128.67C127.429 9.17243 126.297 11.8708 125.271 14.3167C124.247 16.7638 123.225 19.2056 122.203 21.6435C122.037 22.0606 121.827 22.4198 121.577 22.7237C121.326 23.0276 121.021 23.2828 120.66 23.492C120.449 23.6223 120.16 23.7249 119.796 23.7973L119.163 23.9249C118.959 23.9657 118.813 24.1446 118.813 24.3525V24.9498H126.494V24.3288C126.494 24.1077 126.327 23.9209 126.107 23.896C125.314 23.8078 124.734 23.6802 124.365 23.5118C123.939 23.317 123.726 23.0802 123.726 22.8026C123.726 22.7158 123.742 22.5645 123.772 22.3474C123.802 22.1303 123.901 21.7791 124.068 21.2936C124.199 20.9212 124.355 20.495 124.534 20.0187C124.712 19.5411 124.877 19.1254 125.025 18.7688H131.491L133.089 22.5947C133.151 22.7421 133.188 22.8592 133.201 22.946C133.215 23.0329 133.221 23.1105 133.221 23.1802C133.221 23.3802 132.9 23.5473 132.259 23.6815C131.783 23.7815 131.351 23.8538 130.967 23.8986C130.749 23.9236 130.587 24.1104 130.587 24.3301V24.9498H140.592V24.3038C140.592 24.0985 140.449 23.9209 140.248 23.8775H140.245ZM125.565 17.4795L128.236 10.8052L130.946 17.4795H125.565Z" fill="#BEBEBE"/>
</g>
</g>
<defs>
<clipPath id="clip0_1_8186">
<rect width="140" height="29.27" fill="white" transform="translate(0.589966 0.949951)"/>
</clipPath>
</defs>
</svg>
