<svg width="141" height="53" viewBox="0 0 141 53" fill="none" xmlns="http://www.w3.org/2000/svg">
<path d="M75.8806 38.2486L75.9813 19.9611L82.1985 19.9957C83.9751 20.0055 85.0959 20.5078 85.9534 21.2971C86.8888 22.1644 87.4562 23.4215 87.4497 24.7803C87.4433 26.0342 86.8618 27.2327 85.9945 28.0383C87.7139 28.91 88.984 30.7983 88.9732 32.8619C88.9634 34.5597 88.1719 36.0971 86.9387 37.0835C85.9934 37.862 84.7894 38.2995 82.9347 38.2897L75.8806 38.2486ZM82.4778 35.8037C84.1236 35.8124 84.9097 35.4518 85.4867 34.8801C86.013 34.3345 86.3561 33.5787 86.3605 32.7428C86.3648 31.9069 86.0292 31.174 85.5095 30.6217C84.9378 30.0436 84.1561 29.6743 82.5102 29.6646L78.5398 29.6429L78.5062 35.7821L82.4778 35.8037ZM81.6895 27.1776C83.1523 27.1851 83.7814 26.9014 84.2014 26.4336C84.5956 26.0179 84.8339 25.4701 84.8371 24.8431C84.8404 24.2162 84.6087 23.6662 84.2188 23.2461C83.8041 22.774 83.1784 22.4827 81.7155 22.4751L78.5809 22.4579L78.555 27.1602L81.6895 27.1776Z" fill="#BEBEBE"/>
<path d="M97.593 28.284C97.3061 28.2038 97.0191 28.1757 96.6272 28.1735C95.3473 28.167 93.9842 29.0473 93.2978 30.2189L93.2533 38.3438L90.7717 38.3297L90.8399 26.0513L93.2436 26.0644L93.236 27.4751C93.8412 26.6426 95.1265 25.8131 96.9293 25.824C97.1903 25.825 97.6082 25.8543 97.8951 25.9074L97.593 28.284Z" fill="#BEBEBE"/>
<path d="M107.967 37.3024C106.969 38.1849 105.634 38.6743 104.171 38.6656C103.074 38.6592 101.926 38.3397 101.092 37.8384C99.2442 36.7308 97.9751 34.6866 97.9881 32.2309C98.0023 29.7752 99.3189 27.7179 101.18 26.632C102.019 26.1404 103.039 25.859 104.189 25.8643C105.574 25.8719 106.903 26.2974 108.022 27.2697L108.028 26.1458L110.432 26.1589L110.364 38.4371L107.96 38.4242L107.967 37.3024ZM107.929 29.9874C107.176 28.9903 105.927 28.2258 104.438 28.2182C102.06 28.2052 100.483 30.1033 100.471 32.246C100.459 34.4407 102.147 36.3042 104.524 36.3172C105.777 36.3236 107.062 35.7043 107.904 34.5858L107.929 29.9874Z" fill="#BEBEBE"/>
<path d="M113.621 35.1913C114.765 36.0856 116.017 36.563 117.245 36.5695C118.315 36.575 119.389 36.0065 119.395 35.0397C119.402 33.6288 117.365 33.5389 115.566 32.9283C114.08 32.4237 112.753 31.4763 112.762 29.7515C112.776 27.1129 115.134 25.924 117.329 25.9359C119.132 25.9457 120.434 26.5282 121.397 27.3164L120.107 29.0856C119.353 28.5064 118.467 28.11 117.474 28.1046C116.272 28.0982 115.25 28.6676 115.245 29.6335C115.24 30.4694 116.205 30.7617 117.432 31.0821C119.362 31.5889 121.892 32.4649 121.877 34.9996C121.864 37.3242 119.688 38.7491 117.285 38.7362C115.325 38.7253 113.683 38.1157 112.33 37.0102L113.621 35.1913Z" fill="#BEBEBE"/>
<path d="M125.408 20.2336C126.322 20.239 127.049 20.9743 127.045 21.8891C127.039 22.803 126.304 23.5045 125.391 23.4992C124.477 23.4938 123.775 22.7846 123.779 21.8708C123.783 20.9569 124.493 20.2293 125.408 20.2336ZM124.146 26.2363L126.628 26.2505L126.56 38.5287L124.079 38.5147L124.146 26.2363Z" fill="#BEBEBE"/>
<path d="M129.798 19.9967L132.28 20.0108L132.178 38.5593L129.696 38.5453L129.798 19.9967Z" fill="#BEBEBE"/>
<path d="M19.2228 14.4432C13.0153 14.4432 8.0802 19.5321 8.0802 26.3956C8.0802 33.297 12.7457 38.3091 19.2228 38.3091C25.4301 38.3091 30.3653 33.2201 30.3653 26.3566C30.3642 19.5711 25.6997 14.4432 19.2228 14.4432ZM19.2228 32.9864C15.9496 32.9864 13.7506 30.338 13.7506 26.3956C13.7506 22.4306 15.9496 19.766 19.2228 19.766C22.4969 19.766 24.696 22.4144 24.696 26.3566C24.6949 30.3217 22.4959 32.9864 19.2228 32.9864Z" fill="#BEBEBE"/>
<path d="M46.5794 32.038H38.6807V15.7221C38.6807 14.9783 38.2508 14.5484 37.507 14.5484H33.9469C33.2042 14.5484 32.7733 14.9783 32.7733 15.7221V35.2516C32.7733 36.7773 33.5951 37.599 35.1206 37.599H46.5794C47.3221 37.599 47.7531 37.3662 47.7531 36.6224V33.4088C47.7531 32.6661 47.3232 32.038 46.5794 32.038Z" fill="#BEBEBE"/>
<path d="M69.6377 33.7726L63.0936 26.359L63.1639 26.281H63.1195L69.4807 18.9411C70.0329 18.3099 69.9928 17.6396 69.3627 17.0485L66.9568 14.8797C66.3256 14.2886 65.6163 14.3275 65.0642 14.9977L59.3873 22.0171L53.3943 14.9977C52.8422 14.3665 52.1329 14.2886 51.5017 14.8797L49.0179 17.0875C48.3867 17.6786 48.3477 18.3099 48.9388 18.9801L55.483 26.3936L55.4126 26.4716H55.4569L49.0959 33.8115C48.5437 34.4427 48.5837 35.1129 49.2139 35.7042L51.6186 37.8729C52.2498 38.4641 52.9591 38.4251 53.5113 37.7548L59.3851 30.9347L65.1801 37.7548C65.7322 38.3862 66.4414 38.4641 67.0727 37.8729L69.5565 35.6652C70.1899 35.0739 70.2289 34.4427 69.6377 33.7726Z" fill="#BEBEBE"/>
</svg>
