<svg width="140" height="90" viewBox="0 0 140 90" fill="none" xmlns="http://www.w3.org/2000/svg">
<path d="M41.7913 44.0471C41.7913 49.6232 38.4058 53.1746 34.0579 53.4069C31.834 53.5398 29.909 52.876 28.2162 51.4487C27.9176 51.2164 27.7184 51.15 27.3533 51.2827C23.7686 52.4777 19.9185 50.3203 19.0887 46.7025C18.1263 42.4872 21.3789 38.6039 25.727 38.8694C26.3243 38.9026 26.8886 39.0686 27.4861 39.2344C27.7516 39.3009 27.9176 39.2677 28.1167 39.1017C31.2699 36.3137 35.9498 36.3469 39.0365 39.1349C40.862 40.7281 41.7581 42.7859 41.7913 44.0471ZM29.9421 45.2089C29.5771 42.5867 28.2495 41.0931 26.0588 40.6948C24.1338 40.363 22.1424 41.3586 21.2462 43.1178C20.35 44.8437 20.682 46.968 22.0096 48.3619C23.2708 49.6896 25.3619 50.0546 26.5235 49.5237C25.727 48.196 25.2955 46.7688 25.2955 45.2089C25.9262 45.2089 26.4903 45.2089 27.0878 45.2089C27.2538 48.9925 30.1413 51.5151 33.3941 51.5815C36.1158 51.6479 38.771 49.9883 39.7003 47.0011C40.5965 44.0471 39.2688 40.9271 36.5139 39.5C33.9915 38.1723 30.9711 38.8362 29.4775 40.2965C30.9379 41.5911 31.6682 43.1842 31.7013 45.1424C31.1039 45.2089 30.5396 45.2089 29.9421 45.2089Z" fill="#BEBEBE"/>
<path d="M88.4244 49.7894C87.9266 49.7894 87.462 49.7894 86.9972 49.7894C86.6985 49.7894 86.7317 49.5903 86.7317 49.4243C86.7317 48.2294 86.7317 47.0346 86.7317 45.8397C86.7317 45.541 86.6985 45.2422 86.6322 44.9436C86.4993 44.3461 86.1342 43.9478 85.5036 43.8814C84.9061 43.815 84.3751 44.0141 84.1096 44.5784C83.9105 44.9767 83.7777 45.4414 83.7777 45.8729C83.7445 47.0346 83.7777 48.163 83.7777 49.3247C83.7777 49.4575 83.7777 49.6235 83.7777 49.7894C83.2135 49.7894 82.6492 49.7894 82.0518 49.7894C82.0518 49.557 82.0518 49.358 82.0518 49.1255C82.0518 47.9971 82.0518 46.8686 82.0518 45.74C82.0518 45.4745 82.0186 45.2422 81.9854 45.0099C81.8194 44.3461 81.4211 43.981 80.7905 43.9146C80.2262 43.8483 79.5956 44.1469 79.3966 44.6779C79.2306 45.1095 79.1309 45.6074 79.0978 46.1052C79.0646 47.2005 79.0646 48.329 79.0978 49.4575C79.0978 49.7562 79.0314 49.889 78.6995 49.8558C78.268 49.8226 77.8697 49.8558 77.405 49.8558C77.405 47.4328 77.405 45.0099 77.405 42.587C77.9361 42.587 78.5003 42.587 79.0646 42.587C79.0646 42.8193 79.0978 43.0848 79.0978 43.4168C79.6952 42.6202 80.4254 42.3214 81.3216 42.3547C82.2178 42.3879 82.9147 42.7862 83.3794 43.6158C83.4458 43.5495 83.5122 43.5163 83.5454 43.45C84.342 42.421 85.4041 42.1222 86.6322 42.421C87.7938 42.7197 88.3912 43.5827 88.4244 44.7112C88.4908 46.3707 88.4244 48.0634 88.4244 49.7894Z" fill="#BEBEBE"/>
<path d="M113.849 48.86C113.849 50.1213 113.849 51.2829 113.849 52.511C113.251 52.511 112.72 52.511 112.156 52.511C112.156 49.1919 112.156 45.906 112.156 42.5537C112.72 42.5537 113.251 42.5537 113.849 42.5537C113.849 42.8524 113.882 43.118 113.882 43.4498C114.114 43.2507 114.28 43.0847 114.446 42.952C115.84 41.8899 117.931 42.2217 119.06 43.6822C120.155 45.0762 120.155 47.2004 119.126 48.6277C117.898 50.2208 115.342 50.4863 113.849 48.86ZM113.782 46.1052C113.782 47.3664 114.745 48.3952 115.973 48.3952C117.168 48.3952 118.164 47.3996 118.197 46.1715C118.23 44.9102 117.234 43.8813 116.006 43.8481C114.778 43.8481 113.782 44.8439 113.782 46.1052Z" fill="#BEBEBE"/>
<path d="M102.398 49.7893C101.801 49.7893 101.27 49.7893 100.672 49.7893C100.672 49.6233 100.672 49.4905 100.672 49.3578C100.672 48.0965 100.672 46.8021 100.672 45.5408C100.672 44.6114 100.141 44.0472 99.2448 43.9144C98.415 43.8149 97.6849 44.2796 97.4194 45.1425C97.3529 45.408 97.2866 45.6735 97.2866 45.9723C97.2866 47.1007 97.2866 48.2292 97.2866 49.3578C97.2866 49.4905 97.2866 49.6564 97.2866 49.8556C96.7556 49.8556 96.2576 49.8556 95.7598 49.8556C95.6935 49.8556 95.627 49.7561 95.5938 49.6896C95.5607 49.6564 95.5938 49.5901 95.5938 49.5238C95.5938 46.3706 95.5938 43.2174 95.5938 40.0643C95.5938 39.998 95.5938 39.8983 95.627 39.832C96.1913 39.832 96.7223 39.832 97.2866 39.832C97.2866 41.0269 97.2866 42.1885 97.2866 43.4166C97.3862 43.3503 97.4194 43.3503 97.4526 43.317C98.2492 42.3877 99.2781 42.2217 100.373 42.4872C101.535 42.7528 102.265 43.6158 102.332 45.0097C102.464 46.5366 102.398 48.1297 102.398 49.7893Z" fill="#BEBEBE"/>
<path d="M76.3099 46.6363C74.4513 46.6363 72.6257 46.6363 70.767 46.6363C70.7007 47.4992 71.5305 48.3622 72.4929 48.4617C73.2895 48.5613 73.9865 48.329 74.4844 47.6651C74.6503 47.4328 74.7831 47.3996 75.0486 47.5324C75.3806 47.7316 75.7457 47.8643 76.1107 48.0302C75.5797 48.9595 74.8495 49.557 73.8206 49.7893C71.9619 50.2208 70.1695 49.4575 69.4062 47.8974C68.4105 45.8065 69.2403 42.9852 71.7959 42.3879C74.6836 41.7572 76.675 44.0473 76.3099 46.6363ZM74.6171 45.375C74.5508 44.3793 73.6878 43.6823 72.6589 43.6823C71.7296 43.7155 70.8334 44.5121 70.767 45.375C72.0614 45.375 73.3227 45.375 74.6171 45.375Z" fill="#BEBEBE"/>
<path d="M111.094 46.1385C111.094 48.329 109.401 49.9886 107.177 49.9554C104.954 49.9221 103.294 48.2627 103.294 46.072C103.327 43.8814 104.987 42.2882 107.244 42.2882C109.468 42.3215 111.127 43.9478 111.094 46.1385ZM107.211 48.3954C108.406 48.3954 109.401 47.3997 109.435 46.1716C109.468 44.9435 108.439 43.8814 107.244 43.8814C106.049 43.8814 105.053 44.9104 105.053 46.1385C105.02 47.3664 105.983 48.3954 107.211 48.3954Z" fill="#BEBEBE"/>
<path d="M48.164 49.7892C47.6329 49.7892 47.1351 49.7892 46.6704 49.7892C46.4048 49.7892 46.4713 49.5569 46.4713 49.4242C46.4713 47.6983 46.4713 45.9391 46.4713 44.2131C46.4713 43.6489 46.4713 43.1179 46.4713 42.5204C47.0686 42.5204 47.5997 42.5204 48.164 42.5204C48.164 42.7859 48.1972 43.0515 48.1972 43.3502C48.2635 43.2838 48.3299 43.2838 48.363 43.2174C49.1596 42.3213 50.1554 42.1553 51.2507 42.3877C52.4456 42.6532 53.2089 43.5825 53.2421 44.9766C53.3086 46.5365 53.2421 48.0964 53.2421 49.6565C53.2421 49.6897 53.2089 49.6897 53.2089 49.756C52.6779 49.756 52.1136 49.756 51.5162 49.756C51.5162 49.4905 51.5162 49.225 51.5162 48.9927C51.5162 47.8641 51.5162 46.7025 51.5162 45.574C51.5162 44.5783 50.9852 43.9808 50.0558 43.8813C49.1928 43.7817 48.4295 44.346 48.2635 45.2753C48.1972 45.5076 48.164 45.7731 48.164 46.0387C48.164 47.134 48.164 48.2293 48.164 49.3245C48.164 49.4573 48.164 49.59 48.164 49.7892Z" fill="#BEBEBE"/>
<path d="M59.316 42.4875C59.8471 42.4875 60.3118 42.4875 60.7764 42.4875C60.8761 42.4875 61.042 42.6534 61.042 42.7198C61.042 44.147 61.0752 45.6074 61.0087 47.0346C60.9092 49.026 59.482 50.055 57.4574 49.889C55.6319 49.7563 54.6029 48.661 54.5366 46.8355C54.5034 45.4747 54.5034 44.0806 54.5034 42.7198C54.5034 42.6534 54.5366 42.5539 54.5366 42.4542C55.1009 42.4542 55.6319 42.4542 56.2293 42.4542C56.2293 42.587 56.2625 42.7198 56.2625 42.8857C56.2625 44.147 56.2625 45.4082 56.2625 46.6695C56.2625 47.8312 57.0923 48.5282 58.1544 48.2959C58.785 48.1631 59.117 47.6984 59.2497 47.101C59.316 46.6363 59.316 46.1385 59.3493 45.6405C59.316 44.6449 59.316 43.5828 59.316 42.4875Z" fill="#BEBEBE"/>
<path d="M94.598 43.9478C94.1334 44.1801 93.7351 44.4124 93.2704 44.6447C93.1376 44.4788 93.0381 44.3129 92.9053 44.1801C92.5402 43.7818 92.1087 43.5826 91.5777 43.7818C91.3785 43.8481 91.1462 44.0805 91.113 44.2796C91.0798 44.4788 91.2457 44.7775 91.4117 44.9102C91.644 45.1094 91.9428 45.1759 92.2415 45.2754C92.673 45.4414 93.1045 45.574 93.5028 45.7732C94.2662 46.1383 94.7309 46.7358 94.6977 47.6319C94.6977 48.528 94.2661 49.192 93.4696 49.6234C91.9095 50.4531 89.8518 49.7893 89.2212 48.2294C89.2212 48.1962 89.188 48.163 89.188 48.0966C89.6195 47.8642 90.0841 47.6319 90.5156 47.3996C90.7147 47.6319 90.8474 47.8974 91.0798 48.0966C91.5114 48.4949 92.0092 48.5945 92.5402 48.3953C92.839 48.2957 93.0049 48.0966 93.0381 47.7647C93.0713 47.4328 92.9053 47.2004 92.6398 47.1009C92.2747 46.9349 91.8764 46.8353 91.5114 46.7026C91.2126 46.603 90.8807 46.4703 90.5819 46.3375C89.8186 45.9392 89.387 45.3417 89.4535 44.4456C89.4866 43.5826 89.9181 42.952 90.7147 42.5537C92.1419 41.8899 94.0006 42.5205 94.598 43.9478Z" fill="#BEBEBE"/>
<path d="M65.3566 47.5324C65.6221 46.8355 65.8545 46.2712 66.0868 45.707C66.4518 44.7444 66.8502 43.782 67.2153 42.8194C67.3148 42.587 67.4144 42.4875 67.6799 42.4875C68.1446 42.5207 68.6092 42.4875 69.1404 42.4875C69.0075 42.7862 68.908 43.0517 68.8084 43.284C67.9787 45.3087 67.1157 47.3333 66.286 49.358C66.1532 49.6567 66.0204 49.7895 65.6885 49.7895C64.5933 49.7563 64.5933 49.7895 64.1949 48.7605C63.3983 46.8023 62.5686 44.8441 61.7719 42.8857C61.7388 42.753 61.6724 42.6534 61.606 42.4542C62.2034 42.4542 62.7345 42.4542 63.2655 42.4542C63.3652 42.4542 63.4647 42.6202 63.5311 42.753C64.0621 44.1138 64.5933 45.5079 65.1242 46.9018C65.1906 47.101 65.2571 47.2669 65.3566 47.5324Z" fill="#BEBEBE"/>
</svg>
